<?xml version="1.0" standalone="no"?>
<!DOCTYPE svg PUBLIC "-//W3C//DTD SVG 20010904//EN"
 "http://www.w3.org/TR/2001/REC-SVG-20010904/DTD/svg10.dtd">
<svg version="1.0" xmlns="http://www.w3.org/2000/svg"
 width="512.000000pt" height="512.000000pt" viewBox="0 0 512.000000 512.000000"
 preserveAspectRatio="xMidYMid meet">

<g transform="translate(0.000000,512.000000) scale(0.100000,-0.100000)"
fill="#000000" stroke="none">
<path d="M2480 4860 c-36 -12 -68 -32 -92 -58 -71 -76 -68 -34 -68 -1097 0
-1030 -1 -1007 54 -1079 37 -49 117 -86 186 -86 69 0 149 37 186 86 55 72 54
49 54 1079 0 1075 4 1022 -75 1100 -30 30 -59 49 -96 59 -66 20 -81 20 -149
-4z"/>
<path d="M1730 4276 c-289 -121 -601 -356 -803 -606 -514 -636 -614 -1510
-257 -2245 169 -348 447 -657 776 -863 759 -475 1738 -414 2439 151 106 85
274 260 357 372 613 822 547 1965 -156 2703 -178 186 -381 335 -606 445 -136
67 -196 79 -274 57 -122 -34 -194 -174 -152 -295 28 -83 55 -109 183 -170 188
-90 329 -189 474 -334 283 -284 434 -611 471 -1018 31 -351 -64 -715 -265
-1021 -241 -365 -614 -616 -1050 -704 -160 -33 -462 -32 -617 1 -441 94 -803
336 -1046 701 -278 419 -346 938 -184 1422 78 231 206 435 389 619 147 146
280 240 468 331 133 64 161 89 189 173 30 87 0 194 -71 253 -69 56 -171 67
-265 28z"/>
</g>
</svg>
